# xmcd
#
# Track frame offsets:
#	150
#	14735
#	33835
#	46002
#	57112
#	72725
#	91672
#	105815
#	119057
#	134830
#	154477
#	169645
#	187630
#	203590
#	220237
#	236587
#
# Disc length: 3375 seconds
# Revision: 0
# Processed by: cddbd v1.5.2PL0 Copyright (c) Steve Scherf et al.
# Submitted via: dBpowerAMP V12.0
#
DISCID=d80d2d10
DTITLE=The Judds - Their Finest Collection
DYEAR=1984
DGENRE=Country
TTITLE0=Mama He's Crazy
TTITLE1=Grandpa (Tell Me 'Bout the Good Old Days)
TTITLE2=Rockin' With the Rhythm of the Rain
TTITLE3=Don't Be Cruel
TTITLE4=Why Not Me
TTITLE5=Water of Love
TTITLE6=Give a Little Love to Me
TTITLE7=Girls Night Out
TTITLE8=Maybe Your Baby's Got the Blues
TTITLE9=Young Love
TTITLE10=Have Mercy
TTITLE11=Love Is Alive
TTITLE12=Change of Heart
TTITLE13=Turn It Loose
TTITLE14=I Know Where I'm Going
TTITLE15=Cry Myself to Sleep
EXTD=
EXTT0=
EXTT1=
EXTT2=
EXTT3=
EXTT4=
EXTT5=
EXTT6=
EXTT7=
EXTT8=
EXTT9=
EXTT10=
EXTT11=
EXTT12=
EXTT13=
EXTT14=
EXTT15=
PLAYORDER=
